<svg t="1611738695267" class="icon" viewBox="0 0 1024 1024" version="1.1" xmlns="http://www.w3.org/2000/svg" p-id="4424" width="200" height="200"><path d="M991.769643 475.057678C977.162637 199.482207 776.228464 0.003714 512.097657 0.003714a477.864933 477.864933 0 0 0-343.84189 144.062223C80.965104 233.163653 31.170774 353.232237 28.008433 482.386278V505.677174a32.17557 32.17557 0 0 0 0.401567 4.367043c0 3.162341-0.401567 6.374879-0.401567 9.637612v144.413594a121.976028 121.976028 0 0 0 121.875636 121.825441h26.854805a121.976028 121.976028 0 0 0 121.925832-121.825441v-144.413594a121.976028 121.976028 0 0 0-121.875636-121.875636h-26.854805a121.172894 121.172894 0 0 0-47.836689 10.039179A424.4565 424.4565 0 0 1 215.239126 189.844594a412.158505 412.158505 0 0 1 296.75814-124.184647c199.528688 0 357.244194 132.868538 401.868346 326.674893a121.273286 121.273286 0 0 0-39.704954-6.676054h-26.854805a121.976028 121.976028 0 0 0-121.875636 121.825441v144.463789a122.07642 122.07642 0 0 0 90.954964 117.859965 420.440828 420.440828 0 0 1-284.460145 131.714032 79.761279 79.761279 0 0 0-74.289926-51.049227h-14.155243a79.761279 79.761279 0 0 0-79.711083 79.660888v14.155243A79.761279 79.761279 0 0 0 443.479867 1024h14.155243a79.811475 79.811475 0 0 0 76.297762-56.771559 486.498627 486.498627 0 0 0 367.182982-196.516934 122.026224 122.026224 0 0 0 94.870244-118.813687V507.484227a121.524265 121.524265 0 0 0-4.216455-32.426549z m-61.339386 32.426549v144.463789a56.169208 56.169208 0 0 1-56.068816 56.068816h-26.854804A56.169208 56.169208 0 0 1 790.986057 651.948016V507.484227a56.169208 56.169208 0 0 1 56.068817-56.068817h26.854804a56.119012 56.119012 0 0 1 52.856279 37.496335 31.874394 31.874394 0 0 0 1.254897 3.965476 55.868033 55.868033 0 0 1 2.20862 14.607006zM149.934265 463.562817h26.854805a56.169208 56.169208 0 0 1 56.068816 56.068816v144.46379a56.169208 56.169208 0 0 1-56.068816 56.068816h-26.854805a56.169208 56.169208 0 0 1-56.068816-56.068816v-144.413594a56.169208 56.169208 0 0 1 56.068816-56.119012z m321.755696 466.821836v14.205439a13.954459 13.954459 0 0 1-13.904264 13.904263h-14.205438a13.954459 13.954459 0 0 1-14.004655-14.054851v-14.205438a13.954459 13.954459 0 0 1 13.954459-13.904264h14.205439a13.954459 13.954459 0 0 1 13.954459 13.904264z" p-id="4425"></path></svg>