<svg t="1611738576040" class="icon" viewBox="0 0 1024 1024" version="1.1" xmlns="http://www.w3.org/2000/svg" p-id="3089" width="200" height="200"><path d="M592.519529 131.900235l3.599059 2.710589 335.209412 261.451294a45.176471 45.176471 0 0 1-53.278118 72.929882l-2.304-1.686588-27.437176-21.398588V770.56c0 64.978824-51.696941 115.952941-116.254118 117.850353l-3.719529 0.060235H295.664941c-65.024 0-117.940706-49.709176-119.92847-114.145882l-0.045177-3.734588-0.015059-324.668236-27.407059 21.38353a45.176471 45.176471 0 0 1-57.780705-69.421177l2.198588-1.807059 335.209412-261.466352c48.715294-38.008471 115.049412-38.912 164.623058-2.710589z m-106.571294 72.131765l-2.499764 1.822118-217.419295 169.59247v395.14353c0 14.787765 11.324235 26.383059 27.226353 27.452235l2.409412 0.075294H376.470588v-125.485176a135.529412 135.529412 0 0 1 131.538824-135.469177l3.990588-0.060235a135.529412 135.529412 0 0 1 135.529412 135.529412V798.117647h80.805647c16.308706 0 28.431059-10.902588 29.545412-25.359059l0.075294-2.198588V375.416471l-217.404236-169.562353c-16.429176-12.830118-37.707294-13.432471-54.603294-1.837177zM512 627.456a45.176471 45.176471 0 0 0-45.176471 45.176471V798.117647h90.352942v-125.485176a45.176471 45.176471 0 0 0-42.526118-45.101177z" p-id="3090"></path></svg>